<?xml version="1.0" encoding="utf-8"?>
<!-- Generator: Adobe Illustrator 24.0.0, SVG Export Plug-In . SVG Version: 6.00 Build 0)  -->
<svg version="1.1" id="Layer_1" xmlns="http://www.w3.org/2000/svg" xmlns:xlink="http://www.w3.org/1999/xlink" x="0px" y="0px"
	 viewBox="0 0 576 576" style="enable-background:new 0 0 576 576;" xml:space="preserve">
<style type="text/css">
	.st0{fill:#FAD328;}
</style>
<g>
	<g>
		<path d="M305.2,427.3c-11.6,0-23.3,0-34.9,0c-1.5-0.2-3.1-0.6-4.6-0.6c-21.3-1-42.3-4.2-63-9.5c-37.7-9.7-72.7-24.8-101.8-51.5
			c-16.6-15.2-29.2-33-34.9-55.1c-1.2-4.5-1.9-9-2.8-13.6c0-5.7,0-11.4,0-17.1c1.2-5.5,2-11.1,3.6-16.5
			c7.5-25.4,23.6-44.8,44.1-60.6c39.6-30.6,85.7-44.7,134.7-50.7c8.2-1,16.4-1.6,24.6-2.4c11.4,0,22.7,0,34.1,0
			c11.9,1.3,23.9,2.2,35.7,3.9c32.2,4.5,63.1,13.7,92.1,28.8c23.7,12.4,44.9,28,60.6,50c17.7,24.8,24,52,15.3,81.7
			c-7.2,24.5-22.8,43.4-42.6,59c-39.9,31.5-86.5,45.8-136.1,51.9C321.4,425.9,313.3,426.5,305.2,427.3z"/>
	</g>
	<path class="st0" d="M294.9,415c7.7-0.6,22.9-1.5,38-3.2c29.5-3.3,57.9-10.9,84.9-23.4c24.8-11.4,47.3-26.1,63.9-48.2
		c20.2-26.9,24.8-55.9,10.1-86.8c-9.2-19.2-24-33.8-41.3-45.8c-35.8-24.9-76.3-36.9-119-42.4c-26.5-3.4-53-3.5-79.6-0.9
		c-27.8,2.8-55,8.6-81,18.9c-28.3,11.1-54.2,26-74.1,49.7c-13.1,15.6-21.5,33.4-21.9,54.1c-0.5,24.3,9.7,44.5,25.8,62
		c16.4,17.9,36.6,30.5,58.5,40.3C200.1,407.4,243.1,414.4,294.9,415z"/>
	<path d="M364.7,181.1c13.4,4.8,27,9.3,40.3,14.3c18.4,7,36,15.6,51.5,27.9c15.9,12.6,27.9,28,31.8,48.4c6.1,32-2.5,59.3-28.4,79.7
		c-14.2,11.2-29.9,20.6-44.9,30.8c-0.4-0.4-0.8-0.7-1.2-1.1c1-2.3,2-4.7,3-7c3.4-7.6,6.3-15.1,4.9-23.8
		c-2.1-12.3-10.4-18.6-22.9-16.6c-9.2,1.4-17.6,5-25.2,10.2c-9.6,6.6-12.5,10.2-19,23.1c-1.8-3.3-3.3-6.8-5.4-10
		c-6.8-10.5-17.1-13.3-28.2-7.5c-13.8,7.2-22.1,19.1-27.4,33.2c-1.8,4.7-2.7,9.8-4.1,15.2c-0.5-1.5-0.9-2.7-1.3-4
		c-5.4-17-14-31.8-28.1-43.1c-2.1-1.7-4.5-3.1-7-4.1c-7.7-3.3-15.1-1.6-19.9,5.3c-3.4,4.9-5.9,10.4-8.7,15.6
		c-5.8-9.9-13.2-18.9-22.7-26.1c-6.4-4.9-13.4-8.6-21.6-9.7c-14.8-2.1-27.9,10.4-24.2,27.4c1.4,6.3,5.4,12.1,8.3,18.1
		c0.7,1.3,1.8,2.5,2.3,4.6c-4.6-1.6-9.3-3-13.8-5c-28.1-12.6-49.4-32.3-60.7-61.3c-11.9-30.7-4.9-58.3,16.9-82.3
		c13.3-14.7,30.1-24.6,47.8-33c18-8.5,36.8-14.7,55.9-20.2c0.3-0.1,0.7,0,1.2,0c-12.2,17-16.7,36.1-16.3,56.5
		c0.2,9,2.3,17.5,7.5,25.2c8.5,12.6,35.5,15.6,44-4.4c3.2-7.6,5.3-16,6.2-24.2c1.9-16.4,2.7-32.9,4.3-49.6
		c6.6,11.5,15.8,18.3,29.3,18.1c13.2-0.2,22.9-6.4,30.1-17.7c0.5,7.7,1,15.3,1.7,23c1.2,12.4,2.4,24.9,3.9,37.3
		c0.5,3.6,1.8,7.3,3.2,10.7c4.6,11.3,12.7,16.9,24,16.8c11.8-0.1,20.1-5.8,24.8-16.6c5.6-12.9,5.3-26.4,2.7-39.9
		C376.9,203,372.6,191.6,364.7,181.1z"/>
</g>
</svg>
